<svg width="631" height="456" viewBox="0 0 631 456" fill="none" xmlns="http://www.w3.org/2000/svg">
<g opacity="0.6">
<path opacity="0.6" d="M625.837 439.364H3.16306L625.837 1.92461V373.78V439.364Z" transform="translate(3.16309 14.2144)" stroke="black" stroke-width="2"/>
<g opacity="0.6">
<mask id="path-2-inside-1" fill="white">
<path d="M629 16.1389L6.32605 453.578H629V387.995V16.1389ZM0 0L631 12.2896L0 0ZM631 12.2896V387.995V455.578H0L631 12.2896Z"/>
</mask>
<path d="M629 16.1389H631V12.2896L627.85 14.5023L629 16.1389ZM6.32605 453.578L5.17636 451.941L-6.14928e-05 455.578H6.32605V453.578ZM629 453.578V455.578H631V453.578H629ZM631 12.2896H633V8.44041L629.85 10.6531L631 12.2896ZM631 455.578V457.578H633V455.578H631ZM0 455.578L-1.14969 453.941L-6.32611 457.578H0V455.578ZM627.85 14.5023L5.17636 451.941L7.47574 455.214L630.15 17.7754L627.85 14.5023ZM6.32605 455.578H629V451.578H6.32605V455.578ZM631 453.578V387.995H627V453.578H631ZM631 387.995V16.1389H627V387.995H631ZM-0.0389455 1.99962L630.961 14.2893L631.039 10.29L0.0389455 -1.99962L-0.0389455 1.99962ZM631.039 10.29L0.0389455 -1.99962L-0.0389455 1.99962L630.961 14.2893L631.039 10.29ZM629 12.2896V387.995H633V12.2896H629ZM629 387.995V455.578H633V387.995H629ZM631 453.578H0V457.578H631V453.578ZM1.14969 457.214L632.15 13.9262L629.85 10.6531L-1.14969 453.941L1.14969 457.214Z" fill="black" mask="url(#path-2-inside-1)"/>
</g>
</g>
</svg>
